# xmcd
#
# Track frame offsets:
#	150
#	5326
#	20868
#	34762
#	50270
#	66993
#	89359
#	107238
#	121483
#	134809
#	147414
#	163569
#	179142
#	207264
#
# Disc length: 2926 seconds
#
# Revision: 0
# Processed by: cddbd v1.5.2PL0 Copyright (c) Steve Scherf et al.
# Submitted via: dBpowerAMP V4.0
#
DISCID=d50b6c0e
DTITLE=Big and Rich - Comin' To Your City
DYEAR=2006
DGENRE=Country
TTITLE0=The Freak Parade
TTITLE1=Comin' To Your City
TTITLE2=Soul Shaker
TTITLE3=Never Mind Me
TTITLE4=Caught Up In The Moment
TTITLE5=Leap of Faith
TTITLE6=I Pray For You
TTITLE7=Filthy Rich
TTITLE8=Jalapeño
TTITLE9=20 Margaritas
TTITLE10=Blow My Mind
TTITLE11=Slow Motion
TTITLE12=8th of November
TTITLE13=Our America - Bonus Track
EXTD=
EXTT0=
EXTT1=
EXTT2=
EXTT3=
EXTT4=
EXTT5=
EXTT6=
EXTT7=
EXTT8=
EXTT9=
EXTT10=
EXTT11=
EXTT12=
EXTT13=
PLAYORDER=
